<?xml version="1.0" encoding="UTF-8"?>
<svg width="32" height="32" viewBox="0 0 32 32" fill="none" xmlns="http://www.w3.org/2000/svg">
  <rect width="32" height="32" rx="4" fill="#232533"/>
  <path fillRule="evenodd" clipRule="evenodd" d="M23.6016 7.17785H12.0906V2.29437L28.4851 2.29437V18.6889H23.6016V7.17785Z" fill="#FFC01E"/>
  <path fillRule="evenodd" clipRule="evenodd" d="M14.6101 16.8951C13.8643 16.3968 12.9876 16.1309 12.0907 16.1309V11.2474C13.9535 11.2474 15.7744 11.7998 17.3232 12.8346C18.872 13.8695 20.0791 15.3404 20.792 17.0614C21.5048 18.7823 21.6913 20.676 21.3279 22.5029C20.9645 24.3299 20.0675 26.008 18.7504 27.3252C17.4332 28.6423 15.7551 29.5393 13.9281 29.9027C12.1012 30.2661 10.2075 30.0796 8.48657 29.3668C6.76563 28.6539 5.29472 27.4468 4.25984 25.898C3.22496 24.3492 2.6726 22.5283 2.67261 20.6655L7.55609 20.6655C7.55608 21.5624 7.82204 22.4391 8.32031 23.1849C8.81858 23.9306 9.5268 24.5118 10.3554 24.855C11.184 25.1982 12.0958 25.288 12.9754 25.1131C13.855 24.9381 14.663 24.5062 15.2972 23.872C15.9314 23.2379 16.3633 22.4299 16.5383 21.5502C16.7132 20.6706 16.6234 19.7588 16.2802 18.9302C15.937 18.1016 15.3558 17.3934 14.6101 16.8951Z" fill="#1FCB4F"/>
</svg>

